<?xml version="1.0" standalone="no"?>
<!DOCTYPE svg PUBLIC "-//W3C//DTD SVG 20010904//EN"
 "http://www.w3.org/TR/2001/REC-SVG-20010904/DTD/svg10.dtd">
<svg version="1.0" xmlns="http://www.w3.org/2000/svg"
 width="260.000000pt" height="260.000000pt" viewBox="0 0 260.000000 260.000000"
 preserveAspectRatio="xMidYMid meet">
<metadata>
Created by potrace 1.11, written by Peter Selinger 2001-2013
</metadata>
<g transform="translate(0.000000,260.000000) scale(0.100000,-0.100000)"
fill="#000000" stroke="none">
<path d="M1050 1611 c-76 -23 -131 -73 -155 -140 -20 -57 -20 -181 0 -228 38
-91 90 -128 200 -144 130 -18 226 24 278 121 23 44 27 65 27 129 0 42 -5 93
-11 115 -16 57 -78 120 -140 139 -53 17 -155 21 -199 8z m124 -111 c27 0 65
-52 72 -96 16 -112 -27 -194 -103 -194 -87 0 -131 86 -107 209 11 52 69 96
112 85 8 -2 19 -4 26 -4z"/>
<path d="M1837 1614 c-4 -4 -7 -68 -7 -141 0 -83 -4 -132 -10 -128 -5 3 -48
64 -96 135 l-88 130 -73 0 -73 0 0 -255 0 -255 70 0 69 0 3 141 3 142 95 -141
95 -141 78 -1 77 0 -2 258 -3 257 -65 3 c-36 2 -69 0 -73 -4z"/>
<path d="M2090 1360 l0 -260 80 0 80 0 -2 258 -3 257 -77 3 -78 3 0 -261z"/>
<path d="M340 1355 l0 -255 75 0 75 0 0 105 c0 105 0 105 24 105 29 0 56 -33
112 -137 l38 -73 88 0 88 0 -31 62 c-45 89 -79 137 -107 152 l-25 13 38 19
c21 10 48 31 59 46 26 36 27 112 1 155 -32 55 -65 63 -260 63 l-175 0 0 -255z
m281 145 c23 -13 25 -52 4 -74 -17 -16 -96 -32 -120 -22 -11 4 -15 20 -15 56
l0 50 56 0 c30 0 64 -5 75 -10z"/>
</g>
</svg>
