<?xml version="1.0" standalone="no"?>
<!DOCTYPE svg PUBLIC "-//W3C//DTD SVG 20010904//EN"
 "http://www.w3.org/TR/2001/REC-SVG-20010904/DTD/svg10.dtd">
<svg version="1.0" xmlns="http://www.w3.org/2000/svg"
 width="260.000000pt" height="260.000000pt" viewBox="0 0 260.000000 260.000000"
 preserveAspectRatio="xMidYMid meet">
<metadata>
Created by potrace 1.11, written by Peter Selinger 2001-2013
</metadata>
<g transform="translate(0.000000,260.000000) scale(0.100000,-0.100000)"
fill="#000000" stroke="none">
<path d="M1066 1615 c-127 -26 -197 -126 -191 -275 3 -76 20 -123 64 -173 46
-51 107 -72 212 -71 75 0 92 4 132 27 83 49 117 110 121 222 8 201 -131 311
-338 270z m161 -161 c22 -34 24 -150 3 -189 -8 -15 -27 -33 -42 -41 -83 -43
-160 23 -153 131 1 22 3 50 4 62 2 33 42 74 81 82 42 9 82 -8 107 -45z"/>
<path d="M336 1611 c-1 -3 -2 -118 -2 -256 l1 -250 80 0 80 0 0 99 c0 67 4
101 12 103 26 9 54 -21 103 -112 l51 -95 89 0 c102 0 98 -9 43 96 -39 74 -79
124 -101 124 -10 1 -4 7 13 14 81 36 117 131 78 206 -34 65 -63 73 -265 75
-98 1 -180 -1 -182 -4z m280 -109 c16 -11 25 -42 19 -63 -4 -11 -19 -21 -38
-24 -67 -12 -97 -12 -98 -1 -1 6 -2 30 -3 54 l-2 42 55 0 c31 0 61 -4 67 -8z"/>
<path d="M1489 1615 c-1 0 -3 -116 -4 -258 l-2 -258 76 3 75 3 0 133 c0 72 3
132 6 132 3 -1 46 -61 95 -136 l90 -134 75 2 75 3 0 255 0 255 -72 1 c-85 1
-79 12 -77 -158 0 -65 0 -118 -2 -118 -2 0 -45 62 -97 138 l-95 138 -71 0
c-39 0 -72 0 -72 -1z"/>
<path d="M2090 1358 l0 -258 80 0 80 0 0 255 c0 140 -3 255 -7 256 -5 1 -41 2
-80 3 l-73 2 0 -258z"/>
</g>
</svg>
