<?xml version="1.0"?>
<svg width="640" height="640" xmlns="http://www.w3.org/2000/svg">

 <g>
  <title>background</title>
  <rect fill="none" id="canvas_background" height="642" width="642" y="-1" x="-1"/>
 </g>
 <g>
  <title>Layer 1</title>
  <g stroke="null" id="layer1">
   <path stroke="null" fill="#005a5f" fill-rule="nonzero" id="path19359" d="m95.614594,128.197906c-5.475021,0 -10.076004,1.916946 -12.368256,5.668793c-2.391266,3.875229 -2.028412,8.864075 0.511192,13.914291l61.330101,106.161697c0.098877,0.206131 0.098877,0.328201 0,0.514526l-96.373493,170.063507c-2.523125,5.008331 -2.39127,10.039795 0,13.915131c2.308731,3.730255 6.382038,6.184143 11.857063,6.184143l90.700558,0c13.555588,0 20.085953,-9.152527 24.736511,-17.521729c0,0 94.229584,-166.684509 97.907043,-173.155579c-0.362823,-0.598602 -62.352463,-108.738419 -62.352463,-108.738419c-4.51857,-8.0392 -11.345871,-17.006363 -25.247711,-17.006363"/>
   <path stroke="null" fill="#d4d600" fill-rule="nonzero" id="path19375" d="m476.639313,4c-13.539154,0 -19.409973,8.533883 -24.27478,17.274664c0,0 -195.401947,346.516993 -201.83345,357.895838c0.329788,0.618378 128.877304,236.439789 128.877304,236.439789c4.501953,8.039368 11.444763,17.274353 25.330109,17.274353l90.601654,0c5.458374,0 9.729645,-2.061401 12.038361,-5.791687c2.407623,-3.877014 2.358307,-8.989197 -0.181427,-14.018982l-127.871246,-233.614929c-0.115509,-0.184723 -0.115509,-0.412262 0,-0.596954l200.827667,-355.072708c2.506531,-5.009483 2.572449,-10.121646 0.181213,-13.996799c-2.308777,-3.731209 -6.596313,-5.792585 -12.054749,-5.792585l-91.640656,0z"/>
  </g>
 </g>
</svg>
