<svg version="1.1"
	 id="svg2" xmlns:svg="http://www.w3.org/2000/svg" xmlns:rdf="http://www.w3.org/1999/02/22-rdf-syntax-ns#" xmlns:sodipodi="http://sodipodi.sourceforge.net/DTD/sodipodi-0.dtd" xmlns:inkscape="http://www.inkscape.org/namespaces/inkscape" xmlns:dc="http://purl.org/dc/elements/1.1/" xmlns:cc="http://creativecommons.org/ns#" sodipodi:docname="Twitter_bird_logo_2012.svg" inkscape:version="0.48.4 r9939"
	 xmlns="http://www.w3.org/2000/svg" xmlns:xlink="http://www.w3.org/1999/xlink" x="0px" y="0px" viewBox="5 -0.3 111.5 99.4"
	 enable-background="new 5 -0.3 111.5 99.4" xml:space="preserve">
<sodipodi:namedview  fit-margin-top="0" showgrid="false" fit-margin-left="0" pagecolor="#ffffff" id="base" inkscape:cx="101.29413" inkscape:cy="50.181142" borderopacity="1.0" bordercolor="#666666" inkscape:zoom="3.7200571" fit-margin-bottom="0" fit-margin-right="0" inkscape:window-maximized="1" inkscape:window-y="-8" inkscape:current-layer="layer1" inkscape:document-units="px" inkscape:pageopacity="0.0" inkscape:window-x="-8" inkscape:window-height="962" inkscape:pageshadow="2" inkscape:window-width="1280">
	</sodipodi:namedview>
<path fill="none" stroke="#666666" stroke-width="4" stroke-miterlimit="10" d="m76.87375,2.46827c-1.91588,0 -2.74662,1.20758 -3.43501,2.44444c0,0 -27.65041,49.03381 -28.5605,50.64399c0.04666,0.0875 18.23675,33.45736 18.23675,33.45736c0.63705,1.13761 1.61951,2.4444 3.58437,2.4444l12.82063,0c0.77235,0 1.3768,-0.29169 1.70348,-0.81955c0.34074,-0.54861 0.33376,-1.27202 -0.02568,-1.98375l-18.09448,-33.05764c-0.01635,-0.02614 -0.01635,-0.05834 0,-0.08447l28.41819,-50.24449c0.35472,-0.70887 0.364,-1.43226 0.02565,-1.98061c-0.32677,-0.52799 -0.93338,-0.81968 -1.70581,-0.81968l-12.96764,0l0.00005,0z"/>
<path fill="none" stroke="#666666" stroke-width="4" stroke-miterlimit="10" d="m22.95679,20.0429c30.24686,0 -0.7438,0.0678 -1.044,0.202c-0.3001,0.1341 -0.544,0.3347 -0.7061,0.6001c-0.3384,0.5484 -0.2871,1.2543 0.0723,1.969l8.6785,15.0224c0.014,0.0291 0.014,0.0464 0,0.0728l-13.63732,24.0648c-0.35704,0.7087 -0.33838,1.4206 0,1.969c0.32669,0.5279 0.90312,0.8751 1.67782,0.8751l12.8346,0c1.9182,0 2.8422,-1.2951 3.5003,-2.4794c0,0 13.334,-23.5867 13.8543,-24.5023c-0.0513,-0.0847 -8.8231,-15.3871 -8.8231,-15.3871c-0.6394,-1.1375 -1.6055,-2.4064 -3.5727,-2.4064"/>
</svg>
