<svg width="50" height="50" xmlns="http://www.w3.org/2000/svg">

 <g>
  <title>background</title>
  <rect fill="none" id="canvas_background" height="52" width="52" y="-1" x="-1"/>
 </g>
 <g>
  <title>Layer 1</title>
  <g stroke="null" id="layer1">
   <path stroke="null" fill="#005a5f" fill-rule="nonzero" id="path19359" d="m8.556477,12.457168c-0.372817,0 -0.686118,0.130532 -0.842209,0.386013c-0.162831,0.263881 -0.138121,0.603593 0.034812,0.947483l4.176228,7.229007c0.006732,0.014034 0.006732,0.022346 0,0.035036l-6.562485,11.580353c-0.17181,0.341038 -0.162831,0.683655 0,0.94754c0.15721,0.254013 0.43458,0.421104 0.807398,0.421104l6.176193,0c0.923056,0 1.367737,-0.623234 1.684412,-1.19313c0,0 6.416497,-11.350262 6.666909,-11.790903c-0.024704,-0.040762 -4.245844,-7.404467 -4.245844,-7.404467c-0.30769,-0.547422 -0.772588,-1.158036 -1.719224,-1.158036"/>
   <path stroke="null" fill="#d4d600" fill-rule="nonzero" id="path19375" d="m34.502083,4c-0.92194,0 -1.321709,0.581109 -1.652973,1.176306c0,0 -13.305756,23.595827 -13.743704,24.370663c0.022457,0.042107 8.775806,16.100199 8.775806,16.100199c0.306561,0.547436 0.779325,1.176285 1.724838,1.176285l6.169447,0c0.371693,0 0.662537,-0.140369 0.819748,-0.394379c0.163944,-0.264004 0.160591,-0.612114 -0.012356,-0.954613l-8.707298,-15.907846c-0.007868,-0.012577 -0.007868,-0.02807 0,-0.040648l13.675217,-24.178423c0.170681,-0.341117 0.175167,-0.689226 0.012341,-0.953102c-0.157215,-0.254074 -0.449169,-0.394442 -0.820858,-0.394442l-6.240208,0z"/>
  </g>
 </g>
</svg>
