<?xml version="1.0" encoding="UTF-8" standalone="no"?>
<svg
   xmlns:svg="http://www.w3.org/2000/svg"
   xmlns="http://www.w3.org/2000/svg"
   version="1.0"
   width="1024"
   height="405"
   viewBox="0 0 141.68695 56.054741"
   id="svg2268">
  <defs
     id="defs2270" />
  <g
     transform="translate(-194.8708,-324.33481)"
     id="layer1">
    <path
       d="L 51.65625,34.28125 C 51.65625,34.26375 51.67125,34.253749 51.6875,34.25 C 51.70375,34.245 51.711251,34.26625 51.71875,34.28125 C 51.71875,34.28125 62.218748,54.529998 62.21875,54.53125 C 62.435,54.96375 62.771251,55.468749 63.4375,55.46875 L 68.5,55.46875 C 69.02875,55.46875 69.406248,55.09125 69.40625,54.5625 L 69.40625,20.9375 C 69.40625,20.40875 69.028746,20.03125 68.5,20.03125 L 63.65625,20.03125 C 63.1275,20.03125 62.749998,20.40875 62.75,20.9375 L 62.75,41.1875 C 62.75,41.205 62.735,41.215002 62.71875,41.21875 C 62.7025,41.22375 62.664999,41.233751 62.65625,41.21875 C 62.65625,41.21875 52.15625,20.969999 52.15625,20.96875 C 51.92625,20.5125 51.688749,20.03125 50.9375,20.03125 L 45.90625,20.03125 z "
       transform="translate(194.8708,324.33481)"
       style="fill:#005a5f;fill-opacity:1;fill-rule:nonzero;stroke:none"
       id="path19359" />
    <path
       d="M 330.16424,324.33481 C 329.34299,324.33481 328.98674,324.85231 328.69174,325.38231 C 328.69174,325.38231 316.84299,346.39481 316.45299,347.08481 C 316.47299,347.12231 324.26799,361.42231 324.26799,361.42231 C 324.54049,361.90981 324.96174,362.46981 325.80424,362.46981 L 331.29799,362.46981 C 331.62924,362.46981 331.88799,362.34481 332.02799,362.11856 C 332.17424,361.88356 332.17049,361.57356 332.01674,361.26856 L 324.26299,347.10231 C 324.25549,347.09106 324.25549,347.07731 324.26299,347.06606 L 336.44049,325.53481 C 336.59299,325.23106 336.59674,324.92106 336.45174,324.68606 C 336.31174,324.45981 336.05174,324.33481 335.72049,324.33481 L 330.16424,324.33481 z "
       style="fill:#d4d600;fill-opacity:1;fill-rule:nonzero;stroke:none"
       id="path19375" />
  </g>
</svg>
