<?xml version="1.0" encoding="UTF-8" standalone="no"?>
<svg
   xmlns:svg="http://www.w3.org/2000/svg"
   xmlns="http://www.w3.org/2000/svg"
   version="1.0"
   width="1024"
   height="405"
   viewBox="0 0 141.68695 56.054741"
   id="svg2268">
  <defs
     id="defs2270" />
  <g
     transform="translate(-194.8708,-324.33481)"
     id="layer1">
    <path
       d="M 330.16424,324.33481 C 329.34299,324.33481 328.98674,324.85231 328.69174,325.38231 C 328.69174,325.38231 316.84299,346.39481 316.45299,347.08481 C 316.47299,347.12231 324.26799,361.42231 324.26799,361.42231 C 324.54049,361.90981 324.96174,362.46981 325.80424,362.46981 L 331.29799,362.46981 C 331.62924,362.46981 331.88799,362.34481 332.02799,362.11856 C 332.17424,361.88356 332.17049,361.57356 332.01674,361.26856 L 324.26299,347.10231 C 324.25549,347.09106 324.25549,347.07731 324.26299,347.06606 L 336.44049,325.53481 C 336.59299,325.23106 336.59674,324.92106 336.45174,324.68606 C 336.31174,324.45981 336.05174,324.33481 335.72049,324.33481 L 330.16424,324.33481 z "
       style="fill:#d4d600;fill-opacity:1;fill-rule:nonzero;stroke:none"
       id="path19375" />
  </g>
</svg>
