<svg width="111.5" height="99.4" xmlns="http://www.w3.org/2000/svg">

 <g>
  <title>background</title>
  <rect fill="none" id="canvas_background" height="402" width="582" y="-1" x="-1"/>
 </g>
 <g>
  <title>Layer 1</title>
  <path id="svg_2" d="m70.04025,2.46827c-1.91586,0 -2.74661,1.20758 -3.43499,2.44444c0,0 -27.65032,49.03381 -28.56041,50.64399c0.04666,0.0875 18.23675,33.45736 18.23675,33.45736c0.63705,1.13761 1.6195,2.4444 3.58434,2.4444l12.82055,0c0.77241,0 1.3768,-0.29169 1.7035,-0.81955c0.34068,-0.54861 0.33372,-1.27202 -0.02568,-1.98375l-18.09439,-33.05764c-0.01635,-0.02614 -0.01635,-0.05834 0,-0.08447l28.41808,-50.24449c0.35468,-0.70887 0.36401,-1.43226 0.02565,-1.98061c-0.32671,-0.52799 -0.93341,-0.81968 -1.70581,-0.81968l-12.96761,0l0.00002,0z" stroke-miterlimit="10" stroke-width="4" stroke="#666666" fill="none"/>
  <g id="svg_4">
   <path id="svg_1" d="m16.12342,20.04286c-0.38737,0 -0.74382,0.06781 -1.04397,0.20199c-0.30016,0.13417 -0.54402,0.33472 -0.7062,0.60017c-0.33838,0.54836 -0.28703,1.25431 0.07234,1.96894l8.6785,15.0224c0.01399,0.02916 0.01399,0.04643 0,0.0728l-13.63731,24.0648c-0.35704,0.7087 -0.33838,1.42069 0,1.96906c0.32669,0.52786 0.90309,0.87508 1.67783,0.87508l12.83457,0c1.91818,0 2.84226,-1.29512 3.50033,-2.47941c0,0 13.33394,-23.58665 13.85431,-24.50233c-0.05134,-0.08471 -8.82316,-15.38702 -8.82316,-15.38702c-0.63941,-1.13758 -1.6055,-2.40648 -3.57267,-2.40648" stroke-miterlimit="10" stroke-width="4" stroke="#666666" fill="none"/>
   <line stroke-linecap="null" stroke-linejoin="null" id="svg_3" y2="19.99545" x2="29.2367" y1="19.99545" x1="15.38809" fill-opacity="null" stroke-opacity="null" stroke-width="4" stroke="#666666" fill="none"/>
  </g>
 </g>
</svg>
