<?xml version="1.0"?>
<svg width="141.68695" height="56.054741" xmlns="http://www.w3.org/2000/svg">

 <g>
  <title>background</title>
  <rect fill="none" id="canvas_background" height="402" width="582" y="-1" x="-1"/>
 </g>
 <g>
  <title>Layer 1</title>
  <g stroke="null" id="layer1">
   <path fill="#005a5f" fill-rule="nonzero" id="path19359" d="m112.188004,7.53125c-0.332001,0 -0.611,0.11624 -0.75,0.34375c-0.145004,0.23499 -0.123001,0.53751 0.030998,0.84375l3.719002,6.43755c0.005997,0.012501 0.005997,0.0199 0,0.0312l-5.844002,10.3125c-0.153,0.303699 -0.145004,0.608801 0,0.8438c0.139999,0.2262 0.387001,0.375 0.719002,0.375l5.5,0c0.821999,0 1.217995,-0.555 1.5,-1.0625c0,0 5.713997,-10.107599 5.936996,-10.5c-0.022003,-0.0363 -3.780998,-6.5938 -3.780998,-6.5938c-0.274002,-0.48749 -0.688004,-1.03125 -1.530998,-1.03125"/>
   <path fill="#d4d600" fill-rule="nonzero" id="path19375" d="m135.292999,0c-0.820999,0 -1.177002,0.517487 -1.472,1.04752c0,0 -11.848999,21.012479 -12.238998,21.70248c0.019997,0.0375 7.815002,14.337502 7.815002,14.337502c0.272995,0.487499 0.694,1.047497 1.535995,1.047497l5.494003,0c0.330994,0 0.589996,-0.125 0.729996,-0.3512c0.145996,-0.2351 0.143005,-0.545097 -0.011002,-0.850098l-7.753998,-14.166201c-0.007004,-0.0112 -0.007004,-0.025 0,-0.0362l12.178009,-21.53129c0.151993,-0.30377 0.155991,-0.613767 0.010986,-0.848753c-0.139999,-0.226257 -0.399994,-0.351257 -0.730988,-0.351257l-5.557007,0z"/>
  </g>
 </g>
</svg>
